Camelot S01E06 HDTV 720p ENG + NL Subs

Verenigde Staten / Canada / Engeland / Ierland ~ 50 minuten ~ geschreven door Michael Hirst & Chris Chibnall ~ met Jamie Campbell Bower, Tamsin Egerton en Joseph Fiennes

De mannen van Camelot ontdekken dat het rondom het kasteel gevult is met gevaar en wanorde. Arthur hoort dat Guinevere alleen uitgereden is om haar vader te zien en gaat haar achterna om haar te beschermen op haar reis.

Bestandsformaat: .MKV
Bestandsgrootte: 1,45 GB
Taal: Engels in DD5.1
Ondertitelingen: Engels en Nederlands ~ Nederlands custom door SuperOpa (in te stellen)
Categorie : Serie
Formaat : 16:9
Bron : HDTV
Menu: Nee
Extra's: Nee
Genre : Drama ~ Fantasie
Weblink :  http://www.imdb.com/title/tt1672189/

~~~~~~~~~~~~~~~~~~~~~~
USA / Canada / UK / Ireland ~ 50 minutes ~ written by Michael Hirst & Chris Chibnall ~ with Jamie Campbell Bower, Tamsin Egerton and Joseph Fiennes

The men of Camelot discover the territory beyond the castle is filled with danger and disorder. Arthur hears Guinevere has ridden out alone to see her father and goes after her to protect her on the journey.

File Format: .MKV
File size: 1.45 GB
Language: English in DD5.1
Subtitles: English and Dutch ~ Dutch custom by SuperOpa (selectable)
Category : Series
Format : 16:9
Source : HDTV
Menu: No
Extras: No
Genre : Drama ~ Fantasy
Weblink :  http://www.imdb.com/title/tt1672189/

Video and audio information:
~~~~~~~~~~~~~~~~~~~~~~
Video
ID                               : 1
Format                           : AVC
Format/Info                      : Advanced Video Codec
Format profile                   : High@L3.1
Format settings, CABAC           : Yes
Format settings, ReFrames        : 4 frames
Codec ID                         : V_MPEG4/ISO/AVC
Duration                         : 50mn 48s
Bit rate                         : 3 720 Kbps
Width                            : 1 280 pixels
Height                           : 720 pixels
Display aspect ratio             : 16:9
Frame rate                       : 23.976 fps
Color space                      : YUV
Chroma subsampling               : 4:2:0
Bit depth                        : 8 bits
Scan type                        : Progressive
Bits/(Pixel*Frame)               : 0.168
Stream size                      : 1.29 GiB (89%)
Writing library                  : x264 core 104 r1703 cd21d05
Encoding settings                : cabac=1 / ref=3 / deblock=1:0:0 / analyse=0x3:0x113 / me=umh / subme=8 / psy=1 / psy_rd=1.00:0.00 / mixed_ref=0 / me_range=16 / chroma_me=1 / trellis=1 / 8x8dct=1 / cqm=0 / deadzone=21,11 / fast_pskip=1 / chroma_qp_offset=-2 / threads=20 / sliced_threads=0 / nr=0 / decimate=1 / interlaced=0 / constrained_intra=0 / bframes=3 / b_pyramid=2 / b_adapt=1 / b_bias=0 / direct=1 / weightb=1 / open_gop=0 / weightp=2 / keyint=250 / keyint_min=23 / scenecut=40 / intra_refresh=0 / rc=2pass / mbtree=0 / bitrate=3720 / ratetol=1.0 / qcomp=0.60 / qpmin=10 / qpmax=51 / qpstep=4 / cplxblur=20.0 / qblur=0.5 / ip_ratio=1.40 / pb_ratio=1.30 / aq=1:1.00
Language                         : English

Audio
ID                               : 2
Format                           : AC-3
Format/Info                      : Audio Coding 3
Mode extension                   : CM (complete main)
Codec ID                         : A_AC3
Duration                         : 50mn 48s
Bit rate mode                    : Constant
Bit rate                         : 384 Kbps
Channel(s)                       : 6 channels
Channel positions                : Front: L C R, Side: L R, LFE
Sampling rate                    : 48.0 KHz
Bit depth                        : 16 bits
Compression mode                 : Lossy
Stream size                      : 140 MiB (9%)

~~~~~~~~~~~~~~~
Hornigold TBS
~~~~~~~~~~~~~~~